<svg id="Layer_1" data-name="Layer 1" xmlns="http://www.w3.org/2000/svg" xmlns:xlink="http://www.w3.org/1999/xlink" viewBox="0 0 1000 340"><defs><style>.cls-1{fill:#fff;}.cls-2{fill:url(#linear-gradient);}.cls-3{fill:#00b2b2;}.cls-4{fill:url(#linear-gradient-2);}</style><linearGradient id="linear-gradient" x1="61.29" y1="529.9" x2="61.29" y2="532.09" gradientTransform="matrix(9.95, 0, 0, -17, 164.24, 9197.77)" gradientUnits="userSpaceOnUse"><stop offset="0" stop-color="#00b3b3"/><stop offset="1" stop-color="#007273"/></linearGradient><linearGradient id="linear-gradient-2" x1="69.63" y1="526.42" x2="69.63" y2="528.61" gradientTransform="matrix(4.69, 8.13, -13.66, 7.89, 7741.92, -4566.66)" xlink:href="#linear-gradient"/></defs><g id="wordmark"><polygon id="Shape" class="cls-1" points="159.13 175.86 159.13 161.26 91.17 161.26 91.17 175.86 117.22 175.86 117.22 247.49 133.08 247.49 133.08 175.86 159.13 175.86"/><path id="Shape-2" data-name="Shape" class="cls-1" d="M464.85,209.58H437a16,16,0,0,1,3.34-9.9c2.17-2.85,6-4.86,10.85-4.86,4.51,0,7.68,1.51,9.85,3.69,2.34,2.68,3.68,6.2,3.84,11.07m15.53,6.71c.17-7.89-.83-15.1-5.51-22-5.34-7.88-14-11.74-23.54-11.74-8.85,0-15.7,3.19-20.54,8.05-6.18,6.21-9.35,15.27-9.35,25.33,0,10.4,3.51,19.13,9.85,25.33,5,4.7,11.52,7.72,20.37,7.72,8.19,0,16.2-2.52,21.71-8.89a20.41,20.41,0,0,0,2-2.85l-.33-.34L463.35,230a11.44,11.44,0,0,1-2.34,3.69c-2.17,2.19-5,3-9.35,3a13.83,13.83,0,0,1-9.51-3.85c-3.18-2.86-4.85-7.55-4.68-12.42h42.75c0-1.17.16-4.19.16-4.19"/><path id="Shape-3" data-name="Shape" class="cls-1" d="M193.36,209.58H165.64a16,16,0,0,1,3.34-9.9c2.17-2.85,6-4.86,10.85-4.86,4.51,0,7.68,1.51,9.85,3.69a16.89,16.89,0,0,1,3.68,11.07m15.52,6.71c.17-7.89-.83-15.1-5.51-22-5.34-7.88-14-11.74-23.54-11.74-8.85,0-15.69,3.19-20.54,8.05-6.18,6.21-9.35,15.27-9.35,25.33,0,10.4,3.51,19.13,9.85,25.33,5,4.7,11.53,7.72,20.37,7.72,8.19,0,16.2-2.52,21.71-8.89a20.41,20.41,0,0,0,2-2.85l-.33-.34L191.85,230a11.6,11.6,0,0,1-2.33,3.69c-2.18,2.19-5,3-9.36,3a13.83,13.83,0,0,1-9.51-3.85c-3.18-2.86-4.85-7.55-4.68-12.42h43.08a19.89,19.89,0,0,1-.17-4.19"/><path id="Shape-4" data-name="Shape" class="cls-1" d="M665.72,209.58H637.84a16,16,0,0,1,3.34-9.9c2.17-2.85,6-4.86,10.85-4.86,4.51,0,7.68,1.51,9.85,3.69a16.07,16.07,0,0,1,3.84,11.07m15.53,6.71c.17-7.89-.83-15.1-5.51-22-5.34-7.88-14-11.74-23.54-11.74-8.85,0-15.7,3.19-20.54,8.05-6.18,6.21-9.35,15.27-9.35,25.33,0,10.4,3.51,19.13,9.85,25.33,5,4.7,11.52,7.72,20.37,7.72,8.19,0,16.2-2.52,21.71-8.89a20.41,20.41,0,0,0,2-2.85l-.33-.34L664.22,230a11.44,11.44,0,0,1-2.34,3.69c-2.17,2.19-5,3-9.35,3A13.83,13.83,0,0,1,643,232.9c-3.18-2.86-4.85-7.55-4.68-12.42h43.08a19.89,19.89,0,0,1-.17-4.19"/><path id="Shape-5" data-name="Shape" class="cls-1" d="M257.14,222.33c0,9.39-6.85,14.42-16.53,14.42-4.84,0-9.18-3-9.18-7.88,0-5,4.5-7.89,9.35-8.22l16.36-1.17v2.85Zm20.7,24.32V235.41a13.68,13.68,0,0,1-2,.17c-2.67,0-3.51-1.17-3.51-4V208.07c0-4.2-.16-8.73-1.83-12.75-3.68-9.56-13.19-12.92-24.21-12.92-14.36,0-25.88,6.38-26.72,20.47h15c.33-5.87,4.51-9.06,11.69-9.06,8.85,0,10.85,4,10.85,9.9v3.85l-18.87,1.35c-12.19,1.34-21.87,8.22-21.87,20.29,0,10.41,7.85,19.8,23.21,19.8,9.18,0,16.53-4.36,19.53-9.39.5,4.69,4.18,8.89,10.86,8.89a16.34,16.34,0,0,0,7.84-1.85Z"/><path id="Shape-6" data-name="Shape" class="cls-1" d="M378.7,247.49V204.71c0-13.08-7.18-22.14-20.88-22.14-8.68,0-15.52,3.69-19.36,10.4-3.18-6.37-9.35-10.4-18.54-10.4a21.15,21.15,0,0,0-18.37,9.9l-1.16-8.39H287.53v63.41h15.36V212.93c0-7.88,4-16.94,12.69-16.94,7.85,0,9.85,4.53,9.85,12.25v39.25h15.36V212.93c0-7.88,3.84-16.94,12.69-16.94,7.85,0,9.85,4.53,9.85,12.25v39.25Z"/><path id="Shape-7" data-name="Shape" class="cls-1" d="M527,222.33c0,9.39-6.85,14.42-16.53,14.42-4.84,0-9.18-3-9.18-7.88,0-5,4.5-7.89,9.35-8.22L527,219.48Zm20.7,24.32V235.41a13.68,13.68,0,0,1-2,.17c-2.67,0-3.67-1.17-3.67-4V208.07c0-4.2-.17-8.73-1.84-12.75C536.49,185.76,527,182.4,516,182.4c-14.36,0-25.88,6.38-26.72,20.47h15c.33-5.87,4.51-9.06,11.69-9.06,8.85,0,10.85,4,10.85,9.9v3.85l-18.87,1.35c-12.18.84-21.87,7.71-21.87,19.79,0,10.4,7.85,19.8,23.21,19.8,9.18,0,16.53-4.37,19.54-9.4.5,4.7,4.17,8.89,10.85,8.89a13,13,0,0,0,8-1.34Z"/><path id="Shape-8" data-name="Shape" class="cls-1" d="M729.34,198.34v-14.6c-1.67-.16-3.17-.33-4.84-.33-7.51,0-15.2,3-18.2,10.4L705,184.25H691.77v63.24H707.3V215.62c0-10.24,5.68-17.79,16.53-17.79a20.59,20.59,0,0,1,5.51.51"/><path id="Shape-9" data-name="Shape" class="cls-1" d="M406.75,149l-14.86,8.72v73.31c0,12.08,7,16.94,17.53,16.94a23.69,23.69,0,0,0,6.85-.84V234.41c-.84,0-1.17.16-2.68.16-5.34,0-6.17-2.35-6.17-6V148.68Zm-14.86,8.22h0v0Z"/><path id="Shape-10" data-name="Shape" class="cls-1" d="M597.43,215.62c0,9.06-2.5,20.46-14.69,20.46a12.47,12.47,0,0,1-10.35-5c-3.18-4.19-4-9.9-4-15.43s.83-11.24,4-15.27a12.47,12.47,0,0,1,10.35-5c12.35.17,14.69,11.24,14.69,20.3Zm-.67-27c-2.67-3.36-8.68-5.87-16.86-5.87a25.48,25.48,0,0,0-15.7,5c-7.68,6.21-11.52,15.77-11.52,28.18,0,11.91,3.68,21.47,11.36,27.51a24.92,24.92,0,0,0,15.69,5.37c7,0,14.2-2.51,18-8.39l1,6.88h13.36V148.68l-15.53,9.06v30.87Z"/></g><g id="Icon"><polygon id="Shape-11" data-name="Shape" class="cls-2" points="755.24 152.35 793.4 217.53 793.4 152.35 755.24 152.35"/><polygon id="Shape-12" data-name="Shape" class="cls-3" points="793.4 91 793.4 152.35 690.36 152.35 793.4 91"/><polygon id="Shape-13" data-name="Shape" class="cls-4" points="839.08 152.42 908.83 152.28 858.17 182.95 839.08 152.42"/><polygon id="Shape-14" data-name="Shape" class="cls-3" points="800.9 217.31 858.42 182.81 801.16 91.22 800.9 217.31"/></g></svg>